<svg version="1.1" xmlns="http://www.w3.org/2000/svg" viewBox="0 0 50 50">
    <path fill="#FFFFFF" d="M25.4,10.6c-4.1,0-7.4,3.3-7.4,7.4c0,2.4,1.2,4.6,3,5.9l-3.7,6c0,0-0.1,0-0.1,0c-0.8-0.2-1.6-0.1-2.2,0.3
	c-1.4,0.8-1.9,2.6-1.1,4c0.5,0.9,1.5,1.5,2.6,1.5c0.5,0,1-0.1,1.5-0.4c0.7-0.4,1.2-1,1.4-1.8s0.1-1.6-0.3-2.2
	c-0.1-0.2-0.3-0.4-0.5-0.6l4-6.6l0.4-0.6l-0.6-0.4c-1.7-1-2.9-2.9-2.9-5.1c0-3.3,2.6-5.9,5.9-5.9s5.9,2.6,5.9,5.9
	c0,0.6-0.1,1.2-0.3,1.7l1.4,0.4c0.2-0.7,0.3-1.4,0.3-2.2C32.8,13.9,29.5,10.6,25.4,10.6z M25.4,15c-1.6,0-3,1.3-3,3s1.3,3,3,3
	c0.2,0,0.5,0,0.7-0.1l3.6,6.5l0.3,0.6l0.7-0.3c0.8-0.5,1.8-0.7,2.8-0.7c3.3,0,5.9,2.6,5.9,5.9s-2.6,5.9-5.9,5.9
	c-1.6,0-3.1-0.6-4.1-1.7l-1,1.1c1.3,1.3,3.1,2.1,5.1,2.1c4.1,0,7.4-3.3,7.4-7.4s-3.3-7.4-7.4-7.4c-1,0-2,0.3-2.9,0.6l-3.3-5.9
	c0.6-0.5,0.9-1.3,0.9-2.2C28.4,16.4,27.1,15,25.4,15z M14.8,25.6c-3.2,0.8-5.6,3.7-5.6,7.2c0,4.1,3.3,7.4,7.4,7.4
	c3.8,0,6.9-2.9,7.3-6.7h6.9c0.3,1.3,1.5,2.2,2.8,2.2c1.6,0,3-1.3,3-3s-1.3-3-3-3c-1.4,0-2.5,0.9-2.8,2.2h-8.3v0.7
	c0,3.3-2.6,5.9-5.9,5.9s-5.9-2.6-5.9-5.9c0-2.8,1.9-5.1,4.5-5.7L14.8,25.6z"/>
</svg>
