<?xml version="1.0" encoding="UTF-8"?>
<svg xmlns="http://www.w3.org/2000/svg" width="32pt" height="32pt" viewBox="0 0 32 32" version="1.1">
    <g id="surface1">
        <rect fill="none" x="-1" y="-1" width="32" height="32"/>
        <path style=" stroke:none;fill-rule:nonzero;fill:rgb(18.039216%,23.137255%,38.039216%);fill-opacity:1;"
              d="M 23.332031 24.667969 C 21.863281 24.667969 20.667969 23.46875 20.667969 22 C 20.667969 20.53125 21.863281 19.332031 23.332031 19.332031 C 24.800781 19.332031 26 20.53125 26 22 C 26 23.46875 24.800781 24.667969 23.332031 24.667969 Z M 23.332031 24.667969 "/>
        <path style="fill:none;stroke-width:4;stroke-linecap:butt;stroke-linejoin:miter;stroke:rgb(18.039216%,23.137255%,38.039216%);stroke-opacity:1;stroke-miterlimit:10;"
              d="M 25.001953 14.999999 L 31.13086 25.998047 C 32.314454 25.341797 33.644532 24.996094 34.998048 25.001953 C 39.410157 25.001953 43.001954 28.587891 43.001954 33.000001 C 43.001954 37.41211 39.410157 40.998048 34.998048 40.998048 C 32.572266 40.998048 30.275391 39.896485 28.763672 37.998048 "
              transform="matrix(0.666667,0,0,0.666667,0.000000973542,0.000000953674)"/>
        <path style="fill:none;stroke-width:4;stroke-linecap:butt;stroke-linejoin:miter;stroke:rgb(18.039216%,23.137255%,38.039216%);stroke-opacity:1;stroke-miterlimit:10;"
              d="M 34.998048 33.000001 L 22.001953 33.000001 C 22.001953 37.41211 18.410156 40.998048 13.998046 40.998048 C 9.591796 40.998048 5.999999 37.41211 5.999999 33.000001 C 5.999999 29.279297 8.554687 26.144531 11.999999 25.253906 "
              transform="matrix(0.666667,0,0,0.666667,0.000000973542,0.000000953674)"/>
        <path style=" stroke:none;fill-rule:nonzero;fill:rgb(100%,100%,100%);fill-opacity:1;"
              d="M 9.332031 24.667969 C 7.863281 24.667969 6.667969 23.46875 6.667969 22 C 6.667969 20.53125 7.863281 19.332031 9.332031 19.332031 C 10.800781 19.332031 12 20.53125 12 22 C 12 23.46875 10.800781 24.667969 9.332031 24.667969 Z M 9.332031 24.667969 "/>
        <path style=" stroke:none;fill-rule:nonzero;fill:rgb(18.039216%,23.137255%,38.039216%);fill-opacity:1;"
              d="M 16.667969 12.667969 C 15.199219 12.667969 14 11.46875 14 10 C 14 8.53125 15.199219 7.332031 16.667969 7.332031 C 18.136719 7.332031 19.332031 8.53125 19.332031 10 C 19.332031 11.46875 18.136719 12.667969 16.667969 12.667969 Z M 16.667969 12.667969 "/>
        <path style="fill:none;stroke-width:4;stroke-linecap:butt;stroke-linejoin:miter;stroke:rgb(100%,100%,100%);stroke-opacity:1;stroke-miterlimit:10;"
              d="M 13.998046 33.000001 L 20.8125 21.814453 C 18.445312 20.355469 17.003906 17.777343 16.998046 14.999999 C 16.998046 10.58789 20.589844 7.001952 25.001953 7.001952 C 29.408203 7.001952 33.000001 10.58789 33.000001 14.999999 C 33.000001 15.697265 32.91211 16.382812 32.736329 17.033203 "
              transform="matrix(0.666667,0,0,0.666667,0.000000973542,0.000000953674)"/>
    </g>
</svg>
